<?xml version="1.0" encoding="utf-8"?>
<!-- Generator: Adobe Illustrator 24.3.0, SVG Export Plug-In . SVG Version: 6.00 Build 0)  -->
<svg version="1.1" id="_x31_920_x__x_1080_hell" xmlns="http://www.w3.org/2000/svg" xmlns:xlink="http://www.w3.org/1999/xlink"
	 x="0px" y="0px" width="60px" height="60px" viewBox="0 0 60 60" enable-background="new 0 0 60 60" xml:space="preserve">
<g>
	<path fill="#E6E6E6" d="M43.5,26.9c0,0.7-0.6,1.2-1.2,1.2h-8.7c-0.5,0-0.9-0.3-1.1-0.8c-0.2-0.4-0.1-1,0.3-1.3l2.7-2.7
		c-1.8-1.7-4.2-2.6-6.7-2.6c-5.4,0-9.9,4.4-9.9,9.9s4.4,9.9,9.9,9.9c3.1,0,5.9-1.4,7.8-3.8c0.1-0.1,0.3-0.2,0.4-0.2
		c0.2,0,0.3,0.1,0.5,0.2l2.6,2.7c0.2,0.2,0.2,0.6,0,0.8c-2.8,3.4-7,5.4-11.4,5.4c-8.2,0-14.8-6.7-14.8-14.8s6.7-14.8,14.8-14.8
		c3.8,0,7.5,1.5,10.2,4.1l2.5-2.5c0.3-0.4,0.9-0.5,1.4-0.3c0.4,0.2,0.8,0.6,0.8,1.1V26.9z"/>
</g>
</svg>
